<?xml version="1.0" encoding="UTF-8"?>
<svg width="34px" height="34px" viewBox="0 0 34 34" version="1.1" xmlns="http://www.w3.org/2000/svg" xmlns:xlink="http://www.w3.org/1999/xlink">
    <title>Icon/Mood/Happy</title>
    <g id="Icon/Mood/Happy" stroke="none" stroke-width="1" fill="none" fill-rule="evenodd">
        <g id="Happy" transform="translate(1.000000, 1.000000)" fill="#d53f8c" fill-rule="nonzero">
            <path d="M16,-1 C6.61115925,-1 -1,6.61115925 -1,16 C-1,25.3888407 6.61115925,33 16,33 C25.3888407,33 33,25.3888407 33,16 C33,6.61115925 25.3888407,-1 16,-1 Z M16,1 C24.2842712,1 31,7.71572875 31,16 C31,24.2842712 24.2842712,31 16,31 C7.71572875,31 1,24.2842712 1,16 C1,7.71572875 7.71572875,1 16,1 Z" id="Oval"></path>
            <path d="M22.3363021,21.3407836 C22.8172888,21.0693609 23.4272371,21.2392459 23.6986598,21.7202326 C23.9700826,22.2012192 23.8001975,22.8111675 23.3192109,23.0825903 C21.1036754,24.3328262 18.5990851,24.9994435 16,24.9994435 C13.4008446,24.9994435 10.8963226,24.3328584 8.68077916,23.0825847 C8.19979564,22.8111564 8.02991752,22.2012062 8.30134577,21.7202226 C8.57277401,21.2392391 9.18272427,21.069361 9.66370779,21.3407892 C11.5812237,22.4228803 13.7475115,22.9994435 16,22.9994435 C18.2524182,22.9994435 20.418783,22.4228477 22.3363021,21.3407836 Z" id="Path"></path>
            <path d="M11.826087,12.5217391 C11.826087,13.6742957 10.8905739,14.6086957 9.73913043,14.6086957 C8.58761739,14.6086957 7.65217391,13.6742261 7.65217391,12.5217391 C7.65217391,11.3702957 8.58761739,10.4347826 9.73913043,10.4347826 C10.8905739,10.4347826 11.826087,11.3702957 11.826087,12.5217391" id="Path"></path>
            <path d="M24.3478261,12.5217391 C24.3478261,13.6742957 23.4123826,14.6086957 22.2608696,14.6086957 C21.1093565,14.6086957 20.173913,13.6742261 20.173913,12.5217391 C20.173913,11.3702957 21.1093565,10.4347826 22.2608696,10.4347826 C23.4123826,10.4347826 24.3478261,11.3702957 24.3478261,12.5217391" id="Path"></path>
        </g>
    </g>
</svg>