<?xml version="1.0" encoding="UTF-8"?>
<svg width="34px" height="34px" viewBox="0 0 34 34" version="1.1" xmlns="http://www.w3.org/2000/svg" xmlns:xlink="http://www.w3.org/1999/xlink">
    <title>Icon/Mood/Neutral</title>
    <g id="Icon/Mood/Neutral" stroke="none" stroke-width="1" fill="none" fill-rule="evenodd">
        <g id="Neutral" fill="#226978" fill-rule="nonzero">
            <path d="M17,0 C7.61115925,0 0,7.61115925 0,17 C0,26.3888407 7.61115925,34 17,34 C26.3888407,34 34,26.3888407 34,17 C34,7.61115925 26.3888407,0 17,0 Z M17,2 C25.2842712,2 32,8.71572875 32,17 C32,25.2842712 25.2842712,32 17,32 C8.71572875,32 2,25.2842712 2,17 C2,8.71572875 8.71572875,2 17,2 Z" id="Oval"></path>
            <path d="M23.2608696,20.8695652 C23.8131543,20.8695652 24.2608696,21.3172805 24.2608696,21.8695652 C24.2608696,22.3824011 23.8748294,22.8050724 23.3774907,22.8628375 L23.2608696,22.8695652 L10.7391304,22.8695652 C10.1868457,22.8695652 9.73913043,22.42185 9.73913043,21.8695652 C9.73913043,21.3567294 10.1251706,20.9340581 10.6225093,20.8762929 L10.7391304,20.8695652 L23.2608696,20.8695652 Z" id="Path"></path>
            <path d="M12.826087,13.5217391 C12.826087,14.6742957 11.8905739,15.6086957 10.7391304,15.6086957 C9.58761739,15.6086957 8.65217391,14.6742261 8.65217391,13.5217391 C8.65217391,12.3702957 9.58761739,11.4347826 10.7391304,11.4347826 C11.8905739,11.4347826 12.826087,12.3702957 12.826087,13.5217391" id="Path"></path>
            <path d="M25.3478261,13.5217391 C25.3478261,14.6742957 24.4123826,15.6086957 23.2608696,15.6086957 C22.1093565,15.6086957 21.173913,14.6742261 21.173913,13.5217391 C21.173913,12.3702957 22.1093565,11.4347826 23.2608696,11.4347826 C24.4123826,11.4347826 25.3478261,12.3702957 25.3478261,13.5217391" id="Path"></path>
        </g>
    </g>
</svg>