<?xml version="1.0" encoding="UTF-8"?>
<svg width="34px" height="34px" viewBox="0 0 34 34" version="1.1" xmlns="http://www.w3.org/2000/svg" xmlns:xlink="http://www.w3.org/1999/xlink">
    <title>Icon/Mood/Sad</title>
    <g id="Icon/Mood/Sad" stroke="none" stroke-width="1" fill="none" fill-rule="evenodd">
        <g id="Sad" transform="translate(1.000000, 1.000000)" fill="#d53f8c" fill-rule="nonzero">
            <path d="M16,-1 C6.61115925,-1 -1,6.61115925 -1,16 C-1,25.3888407 6.61115925,33 16,33 C25.3888407,33 33,25.3888407 33,16 C33,6.61115925 25.3888407,-1 16,-1 Z M16,1 C24.2842712,1 31,7.71572875 31,16 C31,24.2842712 24.2842712,31 16,31 C7.71572875,31 1,24.2842712 1,16 C1,7.71572875 7.71572875,1 16,1 Z" id="Oval"></path>
            <path d="M11.826087,12.5217391 C11.826087,13.6742957 10.8905739,14.6086957 9.73913043,14.6086957 C8.58761739,14.6086957 7.65217391,13.6742261 7.65217391,12.5217391 C7.65217391,11.3702957 8.58761739,10.4347826 9.73913043,10.4347826 C10.8905739,10.4347826 11.826087,11.3702957 11.826087,12.5217391" id="Path"></path>
            <path d="M24.3478261,12.5217391 C24.3478261,13.6742957 23.4123826,14.6086957 22.2608696,14.6086957 C21.1093565,14.6086957 20.173913,13.6742261 20.173913,12.5217391 C20.173913,11.3702957 21.1093565,10.4347826 22.2608696,10.4347826 C23.4123826,10.4347826 24.3478261,11.3702957 24.3478261,12.5217391" id="Path"></path>
            <path d="M16.0419708,19.1660525 L16.3302026,19.1719641 C18.8936781,19.2675545 21.2321668,20.5039141 22.4172829,22.4330866 C22.7063682,22.9036694 22.5592353,23.5195021 22.0886525,23.8085873 C21.6180697,24.0976725 21.0022371,23.9505396 20.7131518,23.4799568 C19.8958466,22.1495194 18.1799614,21.2423305 16.2556868,21.1705755 C14.151289,21.0921273 12.1850871,22.0264704 11.2854516,23.4822235 C10.9951145,23.952035 10.3788923,24.0975278 9.90908084,23.8071907 C9.43926936,23.5168536 9.2937766,22.9006315 9.58411366,22.43082 C10.8374103,20.402787 13.357229,19.1559688 16.0419708,19.1660525 Z" id="Path"></path>
        </g>
    </g>
</svg>