<?xml version="1.0" encoding="UTF-8"?>
<svg width="34px" height="34px" viewBox="0 0 34 34" version="1.1" xmlns="http://www.w3.org/2000/svg" xmlns:xlink="http://www.w3.org/1999/xlink">
    <title>Icon/Mood/Sleepy</title>
    <g id="Icon/Mood/Sleepy" stroke="none" stroke-width="1" fill="none" fill-rule="evenodd">
        <g id="Sleepy" transform="translate(1.000000, 1.000000)" fill="#d53f8c" fill-rule="nonzero">
            <path d="M15.4777276,0.0445447319 C17.3666993,0.0445447319 19.2135666,0.362844966 20.9595092,0.978596646 C21.2291646,1.07370184 21.4962845,1.17586807 21.7604895,1.28491189 C22.2710025,1.495613 22.514048,2.08027253 22.3033469,2.59078549 C22.0926458,3.10129846 21.5079863,3.34434399 20.9974733,3.13364288 C20.7654992,3.03790152 20.5309878,2.94820717 20.2943009,2.86472969 C18.7613298,2.3240879 17.1393418,2.04454473 15.4777276,2.04454473 C7.48152882,2.04454473 1,8.52607355 1,16.5222724 C1,24.5180808 7.48174405,31 15.4777276,31 C23.4733208,31 29.9554553,24.5178655 29.9554553,16.5222724 C29.9554553,14.7746327 29.646158,13.0710133 29.0495133,11.4691932 C28.8567374,10.9516452 29.1200173,10.375814 29.6375652,10.1830381 C30.1551132,9.99026228 30.7309445,10.2535421 30.9237203,10.7710901 C31.6032479,12.5954271 31.9554553,14.5353965 31.9554553,16.5222724 C31.9554553,25.622435 24.5778903,33 15.4777276,33 C6.37716244,33 -1,25.6226382 -1,16.5222724 C-1,7.42150405 6.37695932,0.0445447319 15.4777276,0.0445447319 Z" id="Path"></path>
            <path d="M15.4777276,21.4033378 C13.6602478,21.4033378 12.1868894,22.8766963 12.1868894,24.6941761 C12.1868894,26.5116559 13.6602478,27.9850144 15.4777276,27.9850144 C17.2952074,27.9850144 18.7685659,26.5116559 18.7685659,24.6941761 C18.7685659,22.8766963 17.2952074,21.4033378 15.4777276,21.4033378 Z M15.4777276,23.4033378 C16.1906379,23.4033378 16.7685659,23.9812658 16.7685659,24.6941761 C16.7685659,25.4070864 16.1906379,25.9850144 15.4777276,25.9850144 C14.7648173,25.9850144 14.1868894,25.4070864 14.1868894,24.6941761 C14.1868894,23.9812658 14.7648173,23.4033378 15.4777276,23.4033378 Z" id="Oval"></path>
            <path d="M24.416344,13.6041273 C24.8607276,13.2761919 25.4868158,13.3705917 25.8147513,13.8149753 C26.1426867,14.259359 26.0482869,14.8854472 25.6039033,15.2133827 C23.1890815,16.9954144 19.8019425,16.9283856 17.6511439,15.1857288 C17.2220331,14.8380473 17.1560216,14.2083328 17.503703,13.7792221 C17.8513845,13.3501113 18.481099,13.2840998 18.9102098,13.6317812 C20.3514247,14.7995069 22.7326361,14.8466293 24.416344,13.6041273 Z" id="Path"></path>
            <path d="M12.0809988,13.6041273 C12.5253824,13.2761919 13.1514707,13.3705917 13.4794061,13.8149753 C13.8073416,14.259359 13.7129417,14.8854472 13.2685581,15.2133827 C10.8537363,16.9954144 7.46659734,16.9283856 5.3157987,15.1857288 C4.88668793,14.8380473 4.82067642,14.2083328 5.16835787,13.7792221 C5.51603932,13.3501113 6.14575384,13.2840998 6.57486461,13.6317812 C8.01607951,14.7995069 10.397291,14.8466293 12.0809988,13.6041273 Z" id="Path"></path>
            <path d="M21.4499771,8.46429818 L19.6894192,8.46429818 C19.4495817,8.46429818 19.2281156,8.33650599 19.1071875,8.12917173 C18.9869323,7.921501 18.9862593,7.66584932 19.1052359,7.45757294 L20.2900896,5.38355744 L19.6894192,5.38355744 C19.3174827,5.38355744 19.0164745,5.08221281 19.0164745,4.71061276 C19.0164745,4.33901271 19.3174827,4.03766808 19.6894192,4.03766808 L21.4499771,4.03766808 C21.6898146,4.03766808 21.9112807,4.16546027 22.0322088,4.37279453 C22.152464,4.58046526 22.153137,4.83611694 22.0341604,5.04439332 L20.8493067,7.11840882 L21.4499771,7.11840882 C21.8219136,7.11840882 22.1229218,7.41975345 22.1229218,7.7913535 C22.1229218,8.16295355 21.8219136,8.46429818 21.4499771,8.46429818 Z" id="Path"></path>
            <path d="M25.58428,5.77251946 L23.0541426,5.77251946 C22.8143051,5.77251946 22.592839,5.64472727 22.4719109,5.43739301 C22.3516557,5.22972228 22.3509827,4.9740706 22.4699593,4.76579422 L24.4243926,1.34588936 L23.0542099,1.34588936 C22.6822734,1.34588936 22.3812652,1.04454473 22.3812652,0.67294468 C22.3812652,0.301344628 22.6822734,0 23.0542099,0 L25.5843473,0 C25.8241848,0 26.0456509,0.127792195 26.166579,0.335126451 C26.2868343,0.542797179 26.2875072,0.798448863 26.1685306,1.00672524 L24.2140301,4.4266301 L25.5842127,4.4266301 C25.9561492,4.4266301 26.2571574,4.72797473 26.2571574,5.09957478 C26.2571574,5.47117484 25.9562165,5.77251946 25.58428,5.77251946 Z" id="Path"></path>
            <path d="M31.0637321,9.13724286 L27.7647554,9.13724286 C27.5249179,9.13724286 27.3034518,9.00945067 27.1825236,8.80211641 C27.0622684,8.59444568 27.0615955,8.338794 27.1805721,8.13051762 L29.9039119,3.3647234 L27.7648227,3.3647234 C27.3928861,3.3647234 27.0918332,3.06337877 27.0918332,2.69177872 C27.0918332,2.32017867 27.3928861,2.01883404 27.7648227,2.01883404 L31.0637994,2.01883404 C31.3036368,2.01883404 31.5251029,2.14662623 31.6460311,2.35396049 C31.7662863,2.56163122 31.7669593,2.8172829 31.6479826,3.02555928 L28.9246428,7.7913535 L31.0637321,7.7913535 C31.4356686,7.7913535 31.7367215,8.09269813 31.7367215,8.46429818 C31.7367215,8.83589823 31.4357359,9.13724286 31.0637321,9.13724286 Z" id="Path"></path>
        </g>
    </g>
</svg>