<?xml version="1.0" encoding="UTF-8"?>
<svg width="44px" height="44px" viewBox="0 0 44 44" version="1.1" xmlns="http://www.w3.org/2000/svg" xmlns:xlink="http://www.w3.org/1999/xlink">
    <title>Icon/Daily-Care/Bottle</title>
    <g id="Icon/Daily-Care/Bottle" stroke="none" stroke-width="1" fill="none" fill-rule="evenodd">
        <g id="Icon-Background" fill="#FBE7E5">
            <circle id="Oval" cx="22" cy="22" r="22"></circle>
        </g>
        <path d="M22.2703722,10 C22.8198859,10 23.3334056,10.2058528 23.7096766,10.5801282 C24.0855564,10.9540007 24.2931494,11.4655009 24.2931494,12.0126455 L24.2925,14.19025 L24.3942205,14.2314019 C25.8301744,14.8351628 26.8669543,16.126083 27.1443079,17.6451188 L27.1575,17.731 L28.0670455,17.731631 C28.8149965,17.731631 29.4153352,18.2835192 29.4708142,19.0207809 L29.475,19.1327147 L29.475,21.0655902 C29.475,21.762917 28.9562445,22.3453332 28.2840069,22.4499446 L28.179,22.462 L28.1795455,32.8239163 C28.1795455,33.5579446 27.6047471,34.164648 26.8811873,34.2207648 L26.7715909,34.225 L17.7034091,34.225 C16.9291697,34.225 16.2954545,33.594646 16.2954545,32.8239163 L16.29525,22.462 L16.1909931,22.4499446 C15.5541364,22.3508391 15.055031,21.8229004 15.0042577,21.1746866 L15,21.0655902 L15,19.1327147 C15,18.361985 15.6337151,17.731631 16.4079545,17.731631 L17.382,17.731 L17.3964432,17.645033 C17.6738288,16.1253107 18.7100114,14.834757 20.1464917,14.2313464 L20.247,14.191 L20.2475949,12.0126455 C20.2475949,10.9511667 21.0822447,10.0701894 22.1421423,10.0039921 L22.2703722,10 Z M27.30675,22.46575 L17.16825,22.46575 L17.16825,25.237 L21.039781,25.2375021 L21.152281,25.3500021 L21.152281,25.9942939 L21.039781,26.1067939 L17.16825,26.10625 L17.16825,28.78075 L21.039781,28.7811072 L21.152281,28.8936072 L21.152281,29.5378991 L21.039781,29.6503991 L17.16825,29.65 L17.1684344,32.7909286 C17.1684344,33.0591466 17.3704897,33.2824844 17.6312095,33.3178448 L17.7036617,33.3227204 L26.7718435,33.3227204 C27.0666051,33.3227204 27.3070708,33.0835334 27.3070708,32.7909286 L27.30675,22.46575 Z M28.0672981,18.600794 L16.4082072,18.600794 C16.1134456,18.600794 15.8729799,18.839981 15.8729799,19.1325858 L15.8729799,21.0654613 C15.8729799,21.3580628 16.1134423,21.5972532 16.4082072,21.5972532 L28.0672981,21.5972532 C28.3620596,21.5972532 28.6025253,21.3580661 28.6025253,21.0654613 L28.6025253,19.1325858 C28.6025253,18.8399843 28.3620629,18.600794 28.0672981,18.600794 Z M22.5614867,14.7023258 L21.9137594,14.7023258 C21.5383479,14.7023258 21.1619003,14.7650889 20.7812513,14.8908807 C19.4609272,15.308392 18.5059707,16.3555221 18.2343918,17.6577541 L18.2265,17.69875 L26.24775,17.69875 L26.2407257,17.6577567 C25.9809577,16.4121625 25.0957942,15.3998788 23.8601441,14.9475359 L23.6894997,14.8893542 C23.3561833,14.7682619 22.9503677,14.7023258 22.5614867,14.7023258 Z M22.2375972,10.8692918 C21.6083555,10.8692918 21.0875471,11.3781027 21.0875471,12.0125748 L21.0885,13.93825 L21.1341677,13.9297932 C21.3198799,13.8981081 21.5157897,13.8779306 21.714989,13.8698221 L21.915029,13.8657575 L22.5627563,13.8657575 C22.8201799,13.8657575 23.0616893,13.8857873 23.3230292,13.9284843 L23.38875,13.93975 L23.3889426,12.0139341 C23.3889426,11.7314718 23.2993275,11.4708946 23.1421184,11.2758502 L23.0706688,11.1963992 C22.8301157,10.9862966 22.5320684,10.8692918 22.2375972,10.8692918 Z" id="Bottle" fill="#D66D50" fill-rule="nonzero"></path>
    </g>
</svg>