<?xml version="1.0" encoding="UTF-8"?>
<svg width="44px" height="44px" viewBox="0 0 44 44" version="1.1" xmlns="http://www.w3.org/2000/svg" xmlns:xlink="http://www.w3.org/1999/xlink">
    <title>Icon/Daily-Care/Food</title>
    <g id="Icon/Daily-Care/Food" stroke="none" stroke-width="1" fill="none" fill-rule="evenodd">
        <g id="Icon-Background" fill="#FBE7E5">
            <circle id="Oval" cx="22" cy="22" r="22"></circle>
        </g>
        <g id="Food" transform="translate(9.000000, 9.000000)" fill="#D66D50">
            <path d="M23.2878063,12.4874162 C26.5366719,8.52184002 23.793569,4.00801081 19.3645533,5.61128196 C17.7189032,4.38766697 15.6935691,3.66978686 13.5000001,3.66978686 C11.4323428,3.66978686 9.44949898,4.30279774 7.80501835,5.52644057 L7.088252,4.80967423 C6.9196635,4.64108573 6.66624474,4.64108573 6.49764789,4.80967423 C6.32905939,4.97826273 6.32905939,5.23168148 6.49764789,5.40027833 L10.0837072,8.98633758 L9.32342028,9.70310392 L5.737361,6.11704467 C5.5687725,5.94845617 5.31535374,5.94845617 5.14675689,6.11704467 C4.97816003,6.28563317 4.97816839,6.53905192 5.14675689,6.70764878 L8.73281617,10.293708 L7.9736152,11.052909 L4.38755592,7.46684973 C4.21896742,7.29826123 3.96554867,7.29826123 3.79695181,7.46684973 C3.62836331,7.63543823 3.62836331,7.88885699 3.79695181,8.05745384 L7.38301109,11.6435131 L6.66624474,12.3602794 C6.62382683,12.3178615 4.68342878,10.3774635 4.80959102,10.5036257 C4.17658014,9.87061484 2.99537192,8.68940664 3.08021331,8.77424802 C2.9116248,8.60565952 2.65820605,8.60565952 2.4896092,8.77424802 C2.32102097,8.94283652 2.32102097,9.19625528 2.4896092,9.36485213 L4.0504179,10.9256608 C3.12264792,14.4267951 4.2190064,18.0128544 6.58140335,20.4177611 C5.69495423,22.6964221 8.01602198,24.2572029 9.70302076,23.2021848 C10.0401866,22.9911784 10.1674626,22.8225843 10.2512181,22.7377429 C12.5711999,23.5817574 15.2718125,23.5393506 17.6767192,22.400577 C18.0138851,22.6964221 18.4359202,23.5393506 19.4909383,23.5393506 C20.9679916,23.5393506 21.8109202,21.8099729 20.8407434,20.670002 C20.7983255,20.5851634 20.7145756,20.5438342 20.6721549,20.4589956 L20.5459871,20.374157 C22.4863963,18.3521921 23.5826796,15.4404367 23.288004,12.4875554 L23.2878063,12.4874162 Z M19.8704831,19.7857248 L16.1159662,16.3683459 L17.6343403,14.7651305 C19.2799904,15.2295723 21.1780763,14.5117034 22.486477,13.3729186 C22.5288949,15.6515796 21.6424625,18.013996 19.8706502,19.7857248 L19.8704831,19.7857248 Z M20.0814895,22.4439305 C19.7443237,22.7810964 19.1112849,22.7810964 18.7741191,22.4015126 C17.0447414,20.5035381 10.5469824,13.4153421 10.6742305,13.5425903 C10.8852369,13.3740018 11.053831,13.2054244 11.2224279,12.9943929 C20.9255876,21.8533153 20.123952,21.0942814 20.2512002,21.3053407 C20.4611206,21.6849412 20.376282,22.1907039 20.0815229,22.4441143 L20.0814895,22.4439305 Z M10.8416579,22.06433 L14.0905235,18.5631957 C17.9299653,22.7398312 16.7063503,21.4325443 17.0010816,21.769738 C15.1879484,22.5702598 12.9516942,22.7399426 10.8416579,22.0644971 L10.8416579,22.06433 Z M9.49185285,22.2753365 C9.11225237,22.6973437 8.52164826,22.7810992 8.01479961,22.6125023 C7.12835049,22.2753365 6.87602601,21.0941282 7.63519913,20.4186828 L12.0652172,16.3269722 C12.1076351,16.3693901 13.6260259,18.0563499 13.5422705,17.9301876 L9.57669424,22.1917481 L9.49185285,22.2753365 Z M4.72464104,11.6432931 L6.37029113,13.2465086 C7.34049573,14.2167132 8.77511435,14.4277168 9.95635042,13.9219541 L11.5171591,15.6100109 L7.12946425,19.7017215 C5.10424152,17.7613123 4.091658,14.6811272 4.72464104,11.6432931 L4.72464104,11.6432931 Z M7.25562649,12.9517495 L10.5883032,9.61907279 C12.1501978,11.8118064 9.40818092,14.4700957 7.25562649,12.9517495 Z M17.6340089,13.8795195 C17.4654204,13.8371015 17.2968431,13.8795195 17.1695671,14.0056873 L15.4815102,15.8199063 L14.7223092,15.10314 L14.0468637,14.4701291 L15.9448383,12.6983168 C16.0710061,12.572149 16.1134268,12.4024718 16.0710061,12.2763096 C14.9322325,8.69025032 20.458701,4.3025555 23.0743886,6.91852153 C25.6075738,9.44950696 21.3471827,15.1879814 17.6339031,13.8795807 L17.6340089,13.8795195 Z M13.4996966,4.51355355 C15.1877535,4.51355355 16.9170198,4.97799542 18.4356445,5.99060678 C16.1994182,7.21422176 14.5962027,9.87153649 15.186779,12.2349553 L13.4149666,13.8806054 L11.6431543,12.2349553 C12.1913516,11.0113403 11.8541607,9.53537302 10.9677088,8.64889606 L8.39428872,6.07547601 C9.91374873,5.06177873 11.6431543,4.51355355 13.499808,4.51355355 L13.4996966,4.51355355 Z" id="Fill-1"></path>
            <path d="M13.5,0 C6.07449902,0 0,6.07449868 0,13.5 C0,20.9255008 6.07449902,27 13.5,27 C20.9255013,27 27,20.9255008 27,13.5 C27,6.07449868 20.9255013,0 13.5,0 Z M13.5000001,26.1563202 C6.53894089,26.1563202 0.84395938,20.4613373 0.84395938,13.5002782 C0.84395938,6.53921899 6.53894089,0.844240041 13.5000001,0.844240041 C20.4610594,0.844240041 26.1560412,6.53921899 26.1560412,13.5002782 C26.1560412,20.4613373 20.4610594,26.1563202 13.5000001,26.1563202 Z" id="Fill-2"></path>
        </g>
    </g>
</svg>