<?xml version="1.0" encoding="UTF-8"?>
<svg width="44px" height="44px" viewBox="0 0 44 44" version="1.1" xmlns="http://www.w3.org/2000/svg" xmlns:xlink="http://www.w3.org/1999/xlink">
    <title>Icon/Daily-Care/Milk</title>
    <g id="Icon/Daily-Care/Milk" stroke="none" stroke-width="1" fill="none" fill-rule="evenodd">
        <g id="Icon-Background" fill="#FBE7E5">
            <circle id="Oval" cx="22" cy="22" r="22"></circle>
        </g>
        <g id="Milk" transform="translate(11.000000, 10.000000)" fill="#D66D50" fill-rule="nonzero">
            <path d="M15.5100096,0 C16.4753483,0 17.2600096,0.784661288 17.2600096,1.75 L17.25975,2.85225 L21.8630077,8.06898394 C21.9686578,8.19000259 22.0350246,8.33877623 22.0542121,8.49604986 L22.06,8.59128 L22.06,23.51 C22.06,23.9453459 21.7053508,24.3 21.27,24.3 L0.79,24.3 C0.354654135,24.3 0,23.9453508 0,23.51 L0,8.58488 C0,8.40097839 0.0635810497,8.22351641 0.180460268,8.08203567 L4.47975,2.8605 L4.4800096,1.75 C4.4800096,0.824883734 5.20064471,0.0657021167 6.11032698,0.00404308658 L6.2300096,0 L15.5100096,0 Z M15.5099296,0.9399264 L6.2299296,0.9399264 C5.78403631,0.9399264 5.4199296,1.30403311 5.4199296,1.7499264 L5.4199296,2.9724224 C5.4199296,3.11880641 5.36886423,3.2612762 5.27571833,3.37402907 L0.93975,8.63775 L0.93975,23.3595 L21.12,23.3595 L21.12,8.6475 L16.476944,3.3860895 C16.3959294,3.29331357 16.3440489,3.18034973 16.3265373,3.06070324 L16.3199296,2.9699264 L16.3199296,1.7499264 C16.3199296,1.30403311 15.9558229,0.9399264 15.5099296,0.9399264 Z" id="Fill-1"></path>
            <path d="M5.87175476,4.61324422 L8.73691943,7.99986533 L2.7100096,8.000032 C2.42843522,8.000032 2.2424171,8.21113435 2.24266941,8.47017825 L2.24727803,8.53945576 C2.27754322,8.76561539 2.45456994,8.940032 2.7100096,8.940032 L9.27991943,8.93961533 L9.2800096,22.230032 C9.2800096,22.5110156 9.4910537,22.6971196 9.74986335,22.6973719 L9.81920047,22.6928907 C10.0455448,22.6630133 10.2200096,22.4860087 10.2200096,22.230032 L10.2196694,8.93961533 L19.3499456,8.940032 C19.63152,8.940032 19.8175381,8.72892965 19.8172858,8.46988575 L19.8126772,8.40060824 C19.782412,8.17444861 19.6053853,8.000032 19.3499456,8.000032 L9.96766943,7.99986533 L6.58942422,4.00560447 C6.18649586,3.53090058 5.47023152,4.13805149 5.87175476,4.61324422 Z" id="Fill-2"></path>
            <path d="M19.6700096,10.560032 C20.1053555,10.560032 20.4600096,10.9146812 20.4600096,11.350032 L20.4600096,20.950032 C20.4600096,21.3853779 20.1053604,21.740032 19.6700096,21.740032 L12.3100096,21.740032 C11.8746637,21.740032 11.5200096,21.3853828 11.5200096,20.950032 L11.5200096,11.350032 C11.5200096,10.9146861 11.8746588,10.560032 12.3100096,10.560032 L19.6700096,10.560032 Z M19.5195096,11.499782 L12.4597596,11.499782 L12.4597596,20.799782 L19.5195096,20.799782 L19.5195096,11.499782 Z" id="Fill-3"></path>
        </g>
    </g>
</svg>