<?xml version="1.0" encoding="UTF-8"?>
<svg width="44px" height="44px" viewBox="0 0 44 44" version="1.1" xmlns="http://www.w3.org/2000/svg" xmlns:xlink="http://www.w3.org/1999/xlink">
    <title>Icon/Daily-Care/Nappy</title>
    <g id="Icon/Daily-Care/Nappy" stroke="none" stroke-width="1" fill="none" fill-rule="evenodd">
        <g id="Icon-Background" fill="#FBE7E5">
            <circle id="Oval" cx="22" cy="22" r="22"></circle>
        </g>
        <path d="M33.6,12 L10.4,12 C10.1790003,12 10,12.1823156 10,12.4074084 L10,24.6296596 C10,24.8547524 10.1790003,25.0370679 10.4,25.0370679 C11.8599945,25.0370679 13.1069449,26.0504914 13.4300169,27.5008652 L14.3850248,31.7796309 C14.6770184,33.0874052 15.8000136,34 17.1160327,34 L26.8839683,34 C28.1999618,34 29.322957,33.0874052 29.6139496,31.7796309 L30.5689576,27.5008652 C30.8929512,26.0504914 32.1399553,25.0370679 33.6,25.0370679 C33.8209997,25.0370679 34,24.8547524 34,24.6296596 L34,12.4074084 C34,12.1823156 33.8209997,12 33.6,12 Z M33.2,13.6296335 L31.6000001,13.6296335 L31.6000001,12.8148167 L33.2,12.8148167 L33.2,13.6296335 Z M32.0000001,15.259267 C30.6759937,15.259267 29.6000002,16.355189 29.6000002,17.7037172 C29.6000002,19.0522455 30.6759937,20.1481675 32.0000001,20.1481675 L33.2,20.1481675 L33.2,20.9629842 L10.8,20.9629842 L10.8,20.1481675 L12.0000009,20.1481675 C13.3240073,20.1481675 14.4000008,19.0522455 14.4000008,17.7037172 C14.4000008,16.355189 13.3240073,15.259267 12.0000009,15.259267 L10.8,15.259267 L10.8,14.4444502 L33.2,14.4444502 L33.2,15.259267 L32.0000001,15.259267 Z M33.2,16.0740837 L33.2,19.3333507 L32.0000001,19.3333507 C31.1180033,19.3333507 30.4000002,18.6020494 30.4000002,17.7037172 C30.4000002,16.805385 31.1180033,16.0740837 32.0000001,16.0740837 L33.2,16.0740837 Z M26.4001283,33.1852354 L17.6001287,33.1852354 L17.6001287,21.777801 L26.4001283,21.777801 L26.4001283,33.1852354 Z M10.8,19.3333507 L10.8,16.0740837 L12.0000009,16.0740837 C12.8819977,16.0740837 13.6000009,16.805385 13.6000009,17.7037172 C13.6000009,18.6020494 12.8819977,19.3333507 12.0000009,19.3333507 L10.8,19.3333507 Z M13.2000009,13.6296335 L13.2000009,12.8148167 L30.8000001,12.8148167 L30.8000001,13.6296335 L13.2000009,13.6296335 Z M12.4000009,12.8148167 L12.4000009,13.6296335 L10.8,13.6296335 L10.8,12.8148167 L12.4000009,12.8148167 Z M15.1660808,31.5994065 L14.2110728,27.3206408 C13.8330633,25.6298895 12.4610825,24.4118102 10.800128,24.242589 L10.800128,21.7777749 L12.4001289,21.7777749 L12.4001289,23.8148167 L13.2001289,23.8148167 L13.2001289,21.7777749 L16.8000007,21.7777749 L16.8000007,33.1578315 C16.0009992,33.0305167 15.3499912,32.4265302 15.166004,31.5994847 L15.1660808,31.5994065 Z M29.7900802,27.3206408 L28.8350722,31.5994065 C28.6510722,32.426452 28.0000771,33.0294164 27.2010755,33.1577533 L27.2000745,21.7776967 L30.7999464,21.7776967 L30.7999464,23.8147385 L31.5999463,23.8147385 L31.5999463,21.7776967 L33.1999463,21.7776967 L33.1999463,24.2425108 C31.5389415,24.4115859 30.1668584,25.629733 29.7900264,27.3205625 L29.7900802,27.3206408 Z" id="Nappy" fill="#D66D50"></path>
    </g>
</svg>