<?xml version="1.0" encoding="UTF-8"?>
<svg width="44px" height="44px" viewBox="0 0 44 44" version="1.1" xmlns="http://www.w3.org/2000/svg" xmlns:xlink="http://www.w3.org/1999/xlink">
    <title>Icon/Daily-Care/Sign-Out</title>
    <g id="Icon/Daily-Care/Sign-Out" stroke="none" stroke-width="1" fill="none" fill-rule="evenodd">
        <g id="Icon-Background" fill="#FBE7E5">
            <circle id="Oval" cx="22" cy="22" r="22"></circle>
        </g>
        <path d="M31.1775793,11.0393857 C31.0212261,10.9756699 30.8429889,10.9896913 30.6966087,11.07832 L27.327348,13.1292095 C27.0701869,13.2854707 26.9815309,13.6291997 27.1243269,13.8714744 L27.1799773,13.955382 C27.3482062,14.1729944 27.6523999,14.2299628 27.8868226,14.0871454 L30.4293447,12.5369451 L30.4293447,32.4490893 L27.8868828,30.9003596 C27.6298102,30.7437396 27.2958376,30.8284158 27.1401514,31.0909483 C26.9834575,31.355211 27.0679351,31.6994962 27.327177,31.8581536 L30.695872,33.9086999 C30.7813683,33.9606064 30.8773351,33.987559 30.9760617,33.987559 C31.0692053,33.987559 31.1613273,33.96289 31.2433502,33.9158296 C31.4150762,33.8172653 31.5217398,33.6316182 31.5217398,33.4299965 L31.5217398,11.5574552 C31.5217398,11.3558477 31.415077,11.1701928 31.2509873,11.0756797 L31.1775793,11.0393857 Z M21.3890465,15.779699 C21.1512454,15.508283 20.7374355,15.4792221 20.482087,15.7087095 L20.4076505,15.7836631 C20.1923881,16.0325665 20.1933972,16.4076751 20.4112819,16.6563466 L24.9444615,21.8317968 L12.6543206,21.8329555 C12.2965953,21.8329555 12.0006874,22.1258191 12,22.4655089 L12.0052312,22.5714549 C12.0434767,22.9031433 12.3230105,23.1545472 12.6542687,23.1545472 L24.945907,23.1532876 L20.4112379,28.3300648 C20.1725873,28.6024504 20.1969515,29.0185011 20.4658039,29.2609543 C20.5852432,29.3688149 20.739382,29.4281106 20.8996203,29.4281106 C21.0873914,29.4281106 21.2647875,29.3475949 21.3893053,29.2053119 L26.8643666,22.9582264 L26.9258699,22.8785585 C26.9401138,22.861969 26.9696212,22.8141303 26.9823164,22.7872455 L27.0095075,22.7271785 L27.0406864,22.6003732 L27.0470057,22.5473139 C27.0518119,22.5098237 27.0514363,22.4562081 27.0462949,22.412992 L27.0294201,22.3233669 L27.001868,22.2370485 L26.964235,22.1630116 L26.8943208,22.0632902 L21.3890465,15.779699 Z" id="Sign-In" fill="#D66D50" fill-rule="nonzero"></path>
    </g>
</svg>