<?xml version="1.0" encoding="UTF-8"?>
<svg width="44px" height="44px" viewBox="0 0 44 44" version="1.1" xmlns="http://www.w3.org/2000/svg" xmlns:xlink="http://www.w3.org/1999/xlink">
    <title>Icon/Daily-Care/Sign-In</title>
    <g id="Icon/Daily-Care/Sign-In" stroke="none" stroke-width="1" fill="none" fill-rule="evenodd">
        <g id="Icon-Background" fill="#FBE7E5">
            <circle id="Oval" cx="22" cy="22" r="22"></circle>
        </g>
        <path d="M31.1766418,11.0393857 C31.0202886,10.9756699 30.8420514,10.9896913 30.6956712,11.07832 L27.3264105,13.1292095 C27.0692493,13.2854707 26.9805933,13.6291997 27.1233894,13.8714744 L27.1790398,13.955382 C27.3472687,14.1729944 27.6514624,14.2299628 27.885885,14.0871454 L30.4284072,12.5369451 L30.4284072,32.4490893 L27.8859453,30.9003596 C27.6288727,30.7437396 27.2949001,30.8284158 27.1392139,31.0909483 C26.9825199,31.355211 27.0669976,31.6994962 27.3262395,31.8581536 L30.6949345,33.9086999 C30.7804308,33.9606064 30.8763976,33.987559 30.9751242,33.987559 C31.0682677,33.987559 31.1603898,33.96289 31.2424127,33.9158296 C31.4141387,33.8172653 31.5208023,33.6316182 31.5208023,33.4299965 L31.5208023,11.5574552 C31.5208023,11.3558477 31.4141395,11.1701928 31.2500498,11.0756797 L31.1766418,11.0393857 Z M18.5245081,15.6764034 C18.2544597,15.4846047 17.8820674,15.5274844 17.6610917,15.7796967 L12.1828909,22.0295496 L12.1142821,22.1189297 L12.0779234,22.1731173 L12.0279637,22.3025457 C12.016305,22.3389078 12.0089761,22.3719451 12.0047251,22.4073046 C12.000658,22.4403166 11.9991935,22.47508 12.0004207,22.5143189 L12.0028994,22.5590059 L12.0215206,22.6631956 L12.05762,22.7625642 C12.0732381,22.7974221 12.0916116,22.8306064 12.1080791,22.8551613 L12.163503,22.9309502 L17.6610327,29.2055423 C17.7853645,29.3476129 17.9627685,29.4281106 18.1505159,29.4281106 C18.3107822,29.4281106 18.4649139,29.368796 18.5845913,29.2607206 C18.8532132,29.0184754 18.8775235,28.6024214 18.6388632,28.3300247 L14.1042292,23.1532876 L26.3958156,23.1545472 C26.724314,23.1545472 27.006452,22.9058428 27.0424436,22.5997869 L27.0493463,22.4937513 C27.0493463,22.1285858 26.7563793,21.8329555 26.3957679,21.8329555 L14.1056747,21.8317968 L18.6389098,16.6562831 C18.8547135,16.4099868 18.8597358,16.0346814 18.6638702,15.8068849 L18.5851861,15.7254078 L18.5245081,15.6764034 Z" id="Sign-Out" fill="#D66D50" fill-rule="nonzero"></path>
    </g>
</svg>