<?xml version="1.0" encoding="UTF-8"?>
<svg width="44px" height="44px" viewBox="0 0 44 44" version="1.1" xmlns="http://www.w3.org/2000/svg" xmlns:xlink="http://www.w3.org/1999/xlink">
    <title>Icon/Daily-Care/Sleep</title>
    <g id="Icon/Daily-Care/Sleep" stroke="none" stroke-width="1" fill="none" fill-rule="evenodd">
        <g id="Icon-Background" fill="#FBE7E5">
            <circle id="Oval" cx="22" cy="22" r="22"></circle>
        </g>
        <g id="Sleep" transform="translate(8.000000, 8.000000)" fill="#D66D50">
            <path d="M13.0605082,0.042616307 C12.8527094,-0.057950146 12.6027064,0.0253575774 12.4959233,0.230563185 L12.386415,0.481941364 C12.2431479,0.827767498 12.1259283,1.18535473 12.0352995,1.55257187 C11.7804053,2.59350801 11.8263099,3.44443459 12.1655959,4.09156771 C12.1891505,4.13635159 12.2091843,4.1718026 12.2297139,4.20448631 L12.3917294,4.462419 L12.09298,4.40302972 C10.9011578,4.16610382 10.041961,3.67144762 9.58726197,2.94927245 C9.36895283,2.60967926 9.24394013,2.22026118 9.22321125,1.82192844 L9.22075279,1.60653631 C9.21819327,1.38287581 9.04428843,1.1992568 8.82159346,1.18474236 C8.59909631,1.17023849 8.40286045,1.32982552 8.37201442,1.54493299 L8.36844424,1.58993297 L8.3685941,1.78434588 C8.39024752,2.49563236 8.64706225,3.18214546 9.10113565,3.73356329 C9.46418789,4.17643074 9.94046867,4.53294735 10.5307025,4.80331662 L10.828549,4.93975163 L10.5188901,5.04670221 C7.03462175,6.25010528 4.3687529,9.09481019 3.39342141,12.6505488 L3.3616783,12.7662737 L3.24357939,12.7450008 C2.44551588,12.6012471 1.62376995,12.8173239 0.998919154,13.3350395 C0.374034103,13.8538257 0.00886747581,14.6208502 0.000109552322,15.4324688 C-0.00711279804,16.2453095 0.343085526,17.019772 0.957282482,17.5491932 C1.57262884,18.0797526 2.38902667,18.311875 3.19039397,18.1840608 L3.30909499,18.1651286 L3.3383655,18.2817116 C4.56998664,23.1871978 9.00183867,26.6969193 14.1202059,26.6969193 C19.2390041,26.6969193 23.670802,23.1878939 24.9008942,18.2817529 L24.9301043,18.16525 L25.0487347,18.1840383 C25.8086527,18.3043916 26.583547,18.1020973 27.1872623,17.625814 C27.7911417,17.150244 28.1685746,16.443289 28.229296,15.6755359 C28.288899,14.9085881 28.0260176,14.151129 27.5043536,13.5864631 C26.9823179,13.021506 26.2480403,12.7000993 25.4773181,12.6978981 C25.3101388,12.6989998 25.1490424,12.7136313 24.9943064,12.7425367 L24.8753985,12.7647493 L24.8435778,12.6480448 C23.5394013,7.86490033 19.1852505,4.47077392 14.1471462,4.44741078 C13.5431952,4.34966217 13.1373565,4.10404669 12.9213782,3.69403644 C12.5187727,2.93258567 12.7837783,1.59936425 13.2633489,0.601631285 C13.3579142,0.391049481 13.2678114,0.143346545 13.0605082,0.042616307 Z M14.1179096,5.30127749 C19.7758682,5.30127749 24.378716,9.90852066 24.378716,15.5715978 C24.3809727,21.2334147 19.7772206,25.8408803 14.1179879,25.8408803 C8.45905998,25.8408803 3.85492626,21.2337826 3.85492626,15.5716501 C3.85492626,9.90856675 8.45772054,5.30243501 14.1179096,5.30127749 Z M2.76104874,13.5512175 C2.85877753,13.5524411 2.9548196,13.5599267 3.04675393,13.5739002 L3.17845054,13.5939173 L3.15648449,13.7253029 C2.96446871,14.8738074 2.95278895,16.0451407 3.12231351,17.1962929 L3.14175212,17.3282903 L3.00945366,17.345561 C2.92882802,17.3560861 2.84541602,17.3611717 2.75940549,17.3611717 C1.70782963,17.3611717 0.856257383,16.5089866 0.856257383,15.4568957 C0.855110346,14.4468349 1.6407811,13.6198083 2.63418937,13.5552623 L2.76104874,13.5512175 Z M25.4764532,13.5498131 C26.5282166,13.5498131 27.3807131,14.4021848 27.3807131,15.4542383 C27.3807131,16.5064836 26.5280248,17.3597924 25.4745529,17.3597924 C25.3869475,17.3585239 25.3053159,17.353234 25.2275212,17.3430785 L25.0953467,17.3258239 L25.1146435,17.1939321 C25.2835922,16.0391848 25.2719118,14.8678478 25.0793944,13.7229126 L25.057244,13.5911802 L25.1893461,13.5713527 C25.2849898,13.5569973 25.3807098,13.5498131 25.4764532,13.5498131 Z" id="Fill-1" fill-rule="nonzero"></path>
            <path d="M12.7049239,13.4125301 C12.7049239,13.1034314 12.4551398,12.8545812 12.1473773,12.8545812 C11.8396149,12.8545812 11.5898308,13.1034285 11.5898308,13.4125301 C11.5775643,13.9225143 11.159403,14.3309131 10.6486731,14.3309131 C10.1379432,14.3309131 9.72090381,13.9224858 9.70862871,13.4125301 C9.70862871,13.1034314 9.45884467,12.8545812 9.15108218,12.8545812 C8.84220638,12.8545812 8.59353566,13.1034285 8.59353566,13.4125301 L8.59242234,13.4125301 C8.61137738,14.5351411 9.52687157,15.4356695 10.6486731,15.4356695 C11.771588,15.4356695 12.6859688,14.5351411 12.7049239,13.4125301 Z" id="Fill-2"></path>
            <path d="M19.2138677,12.8546098 C18.9061053,12.8546098 18.6563212,13.1034571 18.6563212,13.4125586 C18.6563212,13.93257 18.2359133,14.3543955 17.7151635,14.3543955 C17.1955271,14.3543955 16.7740058,13.93257 16.7740058,13.4125586 C16.7740058,13.1034599 16.5253379,12.8546098 16.2164593,12.8546098 C15.9086968,12.8546098 15.6589127,13.1034571 15.6589127,13.4125586 C15.6589127,14.5485677 16.5800021,15.4702932 17.7151635,15.4702932 C18.8514668,15.4702932 19.7714143,14.5485392 19.7714143,13.4125586 C19.7714143,13.1034599 19.5227464,12.8546098 19.2138677,12.8546098 Z" id="Fill-3"></path>
            <path d="M14.1959205,16.180106 C13.1521943,16.180106 12.2110366,16.8083877 11.8118103,17.7736497 C11.4114993,18.7377977 11.632277,19.8492389 12.3704702,20.5868763 C13.1086605,21.3255993 14.2182155,21.5465677 15.1827815,21.1470534 C16.1462343,20.7475676 16.7751477,19.8057308 16.7740358,18.7612229 C16.772921,17.336198 15.618776,16.1812487 14.1959205,16.180106 L14.1959205,16.180106 Z" id="Fill-4"></path>
        </g>
    </g>
</svg>