<?xml version="1.0" encoding="UTF-8"?>
<svg width="44px" height="44px" viewBox="0 0 44 44" version="1.1" xmlns="http://www.w3.org/2000/svg" xmlns:xlink="http://www.w3.org/1999/xlink">
    <title>Icon/Daily-Care/Toilet</title>
    <g id="Icon/Daily-Care/Toilet" stroke="none" stroke-width="1" fill="none" fill-rule="evenodd">
        <g id="Icon-Background" fill="#FBE7E5">
            <circle id="Oval" cx="22" cy="22" r="22"></circle>
        </g>
        <path d="M28.1097364,10 C28.5868444,10 29.0439266,10.2037075 29.3627928,10.5583288 C29.6824951,10.9117744 29.8370374,11.3876091 29.787291,11.8631934 L29.0185,19.20025 L30.2336404,19.2008129 C31.1081914,19.2008129 31.8269469,19.8815444 31.8877941,20.7408947 L31.8919664,20.8591388 L31.8919664,21.94692 C31.8919664,25.1014057 29.974866,27.8915309 27.059413,29.0252186 L26.91625,29.07775 L26.9166643,33.7295944 C26.9166643,33.9575437 26.7506217,34.1460878 26.5330384,34.1815171 L26.4587588,34.1875 L18.43321,34.1875 C18.1802989,34.1875 17.9753045,33.9828725 17.9753045,33.7295944 L17.97475,29.07775 L17.8325649,29.0252292 C14.9849953,27.9180335 13.0897118,25.230293 13.0030991,22.1663935 L13,21.94692 L13,20.8591388 C13,19.9448355 13.7440226,19.2008129 14.658326,19.2008129 L15.74875,19.20025 L14.9808769,11.8632992 C14.931185,11.3882112 15.0862062,10.912275 15.4062026,10.5575008 C15.7254326,10.2034634 16.1825652,10 16.6593575,10 L28.1097364,10 Z M30.976,21.67975 L13.91575,21.67975 L13.9160128,21.946896 C13.9160128,24.8020311 15.6988774,27.3090128 18.3749917,28.2497576 L18.5723862,28.3157797 C18.7623406,28.3759446 18.8912428,28.5528003 18.8912428,28.7524182 L18.8905,33.2725 L26.0005,33.2725 L26.0010287,28.7524182 C26.0010287,28.5777581 26.0997199,28.4205208 26.2516006,28.3436449 L26.3198162,28.3158016 C29.105309,27.4311722 30.9764029,24.8716009 30.9764029,21.946896 L30.976,21.67975 Z M30.2336236,20.1156628 L14.6582635,20.1156628 C14.3076372,20.1156628 14.0125633,20.3606471 13.9354122,20.6882457 L13.92175,20.764 L30.96925,20.764 L30.9564749,20.6882457 C30.885753,20.387947 30.6319155,20.1570672 30.3200289,20.1206727 L30.2336236,20.1156628 Z M28.78075,12.68125 L15.9865,12.68125 L16.669,19.20025 L28.09825,19.20025 L28.78075,12.68125 Z M28.1096691,10.9160032 L16.6592902,10.9160032 C16.4369912,10.9160032 16.2343374,11.0061925 16.085947,11.1713485 C15.9586753,11.3122707 15.88975,11.4881658 15.8874241,11.6742785 L15.89125,11.7655 L28.876,11.7655 L28.8806363,11.6740182 C28.8788231,11.519033 28.8310241,11.3714806 28.7416239,11.2447772 L28.6830267,11.1713644 C28.5338314,11.0062432 28.3310588,10.9160032 28.1096691,10.9160032 Z" id="Toilet" fill="#D66D50" fill-rule="nonzero"></path>
    </g>
</svg>