<?xml version="1.0" encoding="UTF-8"?>
<svg width="44px" height="44px" viewBox="0 0 44 44" version="1.1" xmlns="http://www.w3.org/2000/svg" xmlns:xlink="http://www.w3.org/1999/xlink">
    <title>Icon/Daily-Care/Undies</title>
    <g id="Icon/Daily-Care/Undies" stroke="none" stroke-width="1" fill="none" fill-rule="evenodd">
        <g id="Icon-Background" fill="#FBE7E5">
            <circle id="Oval" cx="22" cy="22" r="22"></circle>
        </g>
        <path d="M33.5877758,17 L9.911989,17 C9.40952805,17 9,17.4094997 9,17.911989 L9,22.4342508 C9,22.6257209 9.05755039,22.8017041 9.15605359,22.94779 C9.19700356,23.2455153 9.26562374,23.5387922 9.36744475,23.8243625 C10.0104667,25.628394 11.2024721,28.2723914 14.1143883,30.391998 C15.1027352,31.1114062 16.2039617,31.6824902 17.3860227,32.0897799 C17.4424681,32.109701 17.5033392,32.1185551 17.5619974,32.1340505 C17.6627134,32.2569004 17.7944174,32.3554036 17.9482639,32.4107412 C19.1369266,32.8368442 20.4163405,33.0526582 21.7500125,33.0526582 C23.0847611,33.0526582 24.3642034,32.8368385 25.5517611,32.4107412 C25.7067097,32.3554036 25.837303,32.2580083 25.9380276,32.1340505 C25.9966858,32.1196629 26.0575596,32.109701 26.1140022,32.0897799 C27.2971399,31.6824902 28.3983663,31.1114062 29.3856367,30.391998 C32.2963061,28.2725331 33.4882838,25.6286206 34.1314474,23.8243625 C34.2332713,23.5388206 34.3007836,23.2455153 34.3417336,22.94779 C34.4402368,22.8016984 34.4977872,22.6246216 34.4977872,22.4331458 L34.5,17.9120173 C34.5,17.4084514 34.0905003,17 33.588011,17 L33.5877758,17 Z M14.6133161,29.7034729 C11.8928757,27.723464 10.772751,25.2364608 10.1675527,23.5376022 C10.1465241,23.4778362 10.1321362,23.4169652 10.114428,23.3560941 C10.2583068,23.3616276 10.4010753,23.3660561 10.5527154,23.3782308 C14.0833153,23.6471752 16.871302,26.8855947 17.3149999,31.1511605 C16.3443612,30.7837045 15.4357155,30.3022696 14.6133727,29.7035041 L14.6133161,29.7034729 Z M33.3319271,23.5376022 C32.7265316,25.2353842 31.6064919,27.7224157 28.8861649,29.7034729 C28.0649554,30.3022384 27.1551764,30.7836761 26.185671,31.1511294 C26.6283773,26.8855663 29.4173557,23.6484984 32.9479555,23.3781997 C33.0995835,23.3671327 33.2412608,23.3627042 33.3862418,23.3560629 C33.3674257,23.416934 33.3530381,23.4778079 33.3320092,23.5375711 L33.3319271,23.5376022 Z M33.6495705,19.241156 C33.4846628,19.2998142 33.3662386,19.4558678 33.3662386,19.6395774 C33.3662386,19.8244062 33.4846628,19.9804542 33.6495705,20.0379989 L33.6495705,22.4330325 C33.6495705,22.4662362 33.625221,22.4939035 33.594233,22.4939035 C33.3651336,22.499437 33.1282935,22.510504 32.882588,22.52932 C28.8009074,22.8403336 25.6111559,26.6342339 25.2977908,31.5494771 C25.2955751,31.5771473 25.2822953,31.6014941 25.2645871,31.6070275 C24.1688856,31.999924 22.9857479,32.1991347 21.7495705,32.1991347 C20.513393,32.1991347 19.3301703,31.9999183 18.2345539,31.6070275 C18.2168456,31.6003862 18.203563,31.5760367 18.2013502,31.5494771 C17.8881267,26.6342339 14.6985168,22.8415519 10.6165529,22.52932 C10.3708494,22.510504 10.1340094,22.499437 9.90490711,22.4939035 C9.87391909,22.4927957 9.84956954,22.4662333 9.84956954,22.4319247 L9.84956954,20.0368911 C10.0144773,19.9804457 10.1329015,19.8243921 10.1329015,19.6395746 C10.1329015,19.4547458 10.0144773,19.2986979 9.84956954,19.2411532 L9.84956954,17.9119295 C9.84956954,17.8776208 9.87723861,17.8499506 9.91154842,17.8499506 L33.5864867,17.8499506 C33.6207953,17.8499506 33.6484655,17.8776208 33.6484655,17.9119295 L33.6495705,19.241156 Z M16.8533671,19.6395774 C16.8533671,19.8742103 16.663002,20.0645754 16.4283691,20.0645754 L15.8683351,20.0645754 C15.6336994,20.0645754 15.4433371,19.8742103 15.4433371,19.6395774 C15.4433371,19.4049417 15.6336994,19.2145795 15.8683351,19.2145795 L16.4283691,19.2145795 C16.6641098,19.2145795 16.8533671,19.4049417 16.8533671,19.6395774 Z M23.5748518,19.6395774 C23.5748518,19.8742103 23.3844867,20.0645754 23.1498538,20.0645754 L22.5898198,20.0645754 C22.3551869,20.0645754 22.1648218,19.8742103 22.1648218,19.6395774 C22.1648218,19.4049417 22.3551869,19.2145795 22.5898198,19.2145795 L23.1498538,19.2145795 C23.3844867,19.2145795 23.5748518,19.4049417 23.5748518,19.6395774 Z M25.8149311,19.6395774 C25.8149311,19.8742103 25.624566,20.0645754 25.3899332,20.0645754 L24.8298992,20.0645754 C24.5952663,20.0645754 24.4049012,19.8742103 24.4049012,19.6395774 C24.4049012,19.4049417 24.5952663,19.2145795 24.8298992,19.2145795 L25.3899332,19.2145795 C25.624566,19.2145795 25.8149311,19.4049417 25.8149311,19.6395774 Z M28.0550105,19.6395774 C28.0550105,19.8742103 27.8646454,20.0645754 27.6300125,20.0645754 L27.0699785,20.0645754 C26.8353456,20.0645754 26.6449805,19.8742103 26.6449805,19.6395774 C26.6449805,19.4049417 26.8353456,19.2145795 27.0699785,19.2145795 L27.6300125,19.2145795 C27.8646454,19.2145795 28.0550105,19.4049417 28.0550105,19.6395774 Z M30.2962232,19.6395774 C30.2962232,19.8742103 30.1058609,20.0645754 29.8712252,20.0645754 L29.3111912,20.0645754 C29.0765583,20.0645754 28.8861932,19.8742103 28.8861932,19.6395774 C28.8861932,19.4049417 29.0765583,19.2145795 29.3111912,19.2145795 L29.8712252,19.2145795 C30.1058609,19.2145795 30.2962232,19.4049417 30.2962232,19.6395774 Z M32.5363025,19.6395774 C32.5363025,19.8742103 32.3459402,20.0645754 32.1113045,20.0645754 L31.5512705,20.0645754 C31.3166376,20.0645754 31.1262725,19.8742103 31.1262725,19.6395774 C31.1262725,19.4049417 31.3166376,19.2145795 31.5512705,19.2145795 L32.1113045,19.2145795 C32.3459402,19.2145795 32.5363025,19.4049417 32.5363025,19.6395774 Z M12.3732651,19.6395774 C12.3732651,19.8742103 12.1829,20.0645754 11.9482671,20.0645754 L11.3882331,20.0645754 C11.1535974,20.0645754 10.9632351,19.8742103 10.9632351,19.6395774 C10.9632351,19.4049417 11.1535974,19.2145795 11.3882331,19.2145795 L11.9482671,19.2145795 C12.1829,19.2145795 12.3732651,19.4049417 12.3732651,19.6395774 Z M14.6133444,19.6395774 C14.6133444,19.8742103 14.4229793,20.0645754 14.1883464,20.0645754 L13.6283124,20.0645754 C13.3936767,20.0645754 13.2033144,19.8742103 13.2033144,19.6395774 C13.2033144,19.4049417 13.3936767,19.2145795 13.6283124,19.2145795 L14.1883464,19.2145795 C14.4229793,19.2145795 14.6133444,19.4049417 14.6133444,19.6395774 Z M19.0945231,19.6395774 C19.0945231,19.8742103 18.904158,20.0645754 18.6695251,20.0645754 L18.1094911,20.0645754 C17.8748582,20.0645754 17.6844931,19.8742103 17.6844931,19.6395774 C17.6844931,19.4049417 17.8748582,19.2145795 18.1094911,19.2145795 L18.6695251,19.2145795 C18.904158,19.2145795 19.0945231,19.4049417 19.0945231,19.6395774 Z M21.3346024,19.6395774 C21.3346024,19.8742103 21.1442373,20.0645754 20.9096045,20.0645754 L20.3495705,20.0645754 C20.1149376,20.0645754 19.9245725,19.8742103 19.9245725,19.6395774 C19.9245725,19.4049417 20.1149376,19.2145795 20.3495705,19.2145795 L20.9096045,19.2145795 C21.1442373,19.2145795 21.3346024,19.4049417 21.3346024,19.6395774 Z" id="Undies" fill="#D66D50"></path>
    </g>
</svg>