<?xml version="1.0" encoding="UTF-8"?>
<svg width="44px" height="44px" viewBox="0 0 44 44" version="1.1" xmlns="http://www.w3.org/2000/svg" xmlns:xlink="http://www.w3.org/1999/xlink">
    <title>Icon/Daily-Care/Water</title>
    <g id="Icon/Daily-Care/Water" stroke="none" stroke-width="1" fill="none" fill-rule="evenodd">
        <g id="Icon-Background" fill="#FBE7E5">
            <circle id="Oval" cx="22" cy="22" r="22"></circle>
        </g>
        <path d="M29.2248515,10 C30.0876688,10 30.7690682,10.5679211 30.696507,11.3522126 L28.2839058,32.9378706 C28.2096213,33.6839117 27.6093444,34.2625 26.8816264,34.2625 L16.8230385,34.2625 C16.0831575,34.2625 15.4243638,33.6724101 15.351339,32.9390467 L13.0050485,11.3494939 C12.9342547,10.5692544 13.6171689,10 14.4769793,10 L29.2248515,10 Z M20.9702319,18.1574754 C18.6951904,19.2080693 17.268697,19.5126964 14.875959,19.0960846 L14.7586758,19.07425 L16.2801743,32.8320349 C16.3329316,33.0914264 16.5205846,33.2862126 16.7453237,33.3225759 L16.8214761,33.3287008 L26.8786107,33.3287008 C27.1396478,33.3287008 27.3491174,33.1192268 27.3499133,32.8437618 L29.0799258,17.20675 L28.8667817,17.1599993 C25.7513437,16.4949588 24.0523905,16.7646627 21.5079065,17.9102464 L20.9702319,18.1574754 Z M25.8725702,31.5190706 C26.4506549,31.5190706 26.4506549,32.4543231 25.8725702,32.4543231 L17.8294059,32.4543231 C17.1846128,32.4543231 17.1846128,31.5190706 17.8294059,31.5190706 L25.8725702,31.5190706 Z M29.2233982,10.9339082 L14.477052,10.9339082 C14.1387894,10.9339082 13.9383834,11.0672279 13.9376431,11.3238222 L14.6634258,18.13375 L14.8639195,18.1728995 C16.9822124,18.5670183 18.3443295,18.3330949 20.2780609,17.4804633 L20.5454193,17.3603613 L20.8881667,17.202502 C23.7916014,15.8602285 25.5657102,15.5208204 28.9825577,16.2324914 L29.1766758,16.27375 L29.7634837,11.3377428 C29.7634837,11.091724 29.5977603,10.9592645 29.3125121,10.9372142 L29.2233982,10.9339082 Z" id="Water" fill="#D66D50" fill-rule="nonzero"></path>
    </g>
</svg>